<?xml version="1.0" encoding="UTF-8" standalone="no"?>
<svg xmlns="http://www.w3.org/2000/svg" baseProfile="tiny" height="170mm" width="170mm" version="1.2" xmlns:xlink="http://www.w3.org/1999/xlink" viewBox="0 0 960 963">
 <title>Qt SVG Document</title>
 <desc>Generated with Qt</desc>
 <g stroke-linejoin="bevel" font-size="9" font-weight="400" fill-rule="evenodd" stroke="#000" stroke-linecap="square" font-family="sans-serif" fill="none">
  <g stroke-linejoin="round" transform="scale(1.0042)" stroke="#a0a0a4" stroke-linecap="round" stroke-dasharray="0.5,1" stroke-width=".5">
   <polyline points="53.5 914.5 937.5 914.5" fill="none"/>
  </g>
  <g stroke-linejoin="round" transform="scale(1.0042)" stroke="#000" stroke-linecap="round">
   <polyline points="53.5 914.5 58.5 914.5"/>
   <polyline points="937.5 914.5 932.5 914.5"/>
  </g>
  <g stroke-linejoin="bevel" transform="matrix(1.0042 0 0 1.0042 27.113 921.83)" stroke="#000" stroke-linecap="square">
   <text font-size="9" font-weight="400" xml:space="preserve" stroke="none" y="0" x="0" font-family="sans-serif" fill="#000000"> 3.6</text>
  </g>
  <g stroke-linejoin="round" transform="scale(1.0042)" stroke="#a0a0a4" stroke-linecap="round" stroke-dasharray="0.5,1" stroke-width=".5">
   <polyline points="53.5 785.5 937.5 785.5" fill="none"/>
  </g>
  <g stroke-linejoin="round" transform="scale(1.0042)" stroke="#000" stroke-linecap="round">
   <polyline points="53.5 785.5 58.5 785.5"/>
   <polyline points="937.5 785.5 932.5 785.5"/>
  </g>
  <g stroke-linejoin="bevel" transform="matrix(1.0042 0 0 1.0042 27.113 792.29)" stroke="#000" stroke-linecap="square">
   <text font-size="9" font-weight="400" xml:space="preserve" stroke="none" y="0" x="0" font-family="sans-serif" fill="#000000"> 3.7</text>
  </g>
  <g stroke-linejoin="round" transform="scale(1.0042)" stroke="#a0a0a4" stroke-linecap="round" stroke-dasharray="0.5,1" stroke-width=".5">
   <polyline points="53.5 656.5 937.5 656.5" fill="none"/>
  </g>
  <g stroke-linejoin="round" transform="scale(1.0042)" stroke="#000" stroke-linecap="round">
   <polyline points="53.5 656.5 58.5 656.5"/>
   <polyline points="937.5 656.5 932.5 656.5"/>
  </g>
  <g stroke-linejoin="bevel" transform="matrix(1.0042 0 0 1.0042 27.113 663.76)" stroke="#000" stroke-linecap="square">
   <text font-size="9" font-weight="400" xml:space="preserve" stroke="none" y="0" x="0" font-family="sans-serif" fill="#000000"> 3.8</text>
  </g>
  <g stroke-linejoin="round" transform="scale(1.0042)" stroke="#a0a0a4" stroke-linecap="round" stroke-dasharray="0.5,1" stroke-width=".5">
   <polyline points="53.5 527.5 937.5 527.5" fill="none"/>
  </g>
  <g stroke-linejoin="round" transform="scale(1.0042)" stroke="#000" stroke-linecap="round">
   <polyline points="53.5 527.5 58.5 527.5"/>
   <polyline points="937.5 527.5 932.5 527.5"/>
  </g>
  <g stroke-linejoin="bevel" transform="matrix(1.0042 0 0 1.0042 27.113 534.22)" stroke="#000" stroke-linecap="square">
   <text font-size="9" font-weight="400" xml:space="preserve" stroke="none" y="0" x="0" font-family="sans-serif" fill="#000000"> 3.9</text>
  </g>
  <g stroke-linejoin="round" transform="scale(1.0042)" stroke="#a0a0a4" stroke-linecap="round" stroke-dasharray="0.5,1" stroke-width=".5">
   <polyline points="53.5 398.5 937.5 398.5" fill="none"/>
  </g>
  <g stroke-linejoin="round" transform="scale(1.0042)" stroke="#000" stroke-linecap="round">
   <polyline points="53.5 398.5 58.5 398.5"/>
   <polyline points="937.5 398.5 932.5 398.5"/>
  </g>
  <g stroke-linejoin="bevel" transform="matrix(1.0042 0 0 1.0042 37.154 404.68)" stroke="#000" stroke-linecap="square">
   <text font-size="9" font-weight="400" xml:space="preserve" stroke="none" y="0" x="0" font-family="sans-serif" fill="#000000"> 4</text>
  </g>
  <g stroke-linejoin="round" transform="scale(1.0042)" stroke="#a0a0a4" stroke-linecap="round" stroke-dasharray="0.5,1" stroke-width=".5">
   <polyline points="53.5 269.5 937.5 269.5" fill="none"/>
  </g>
  <g stroke-linejoin="round" transform="scale(1.0042)" stroke="#000" stroke-linecap="round">
   <polyline points="53.5 269.5 58.5 269.5"/>
   <polyline points="937.5 269.5 932.5 269.5"/>
  </g>
  <g stroke-linejoin="bevel" transform="matrix(1.0042 0 0 1.0042 29.121 275.14)" stroke="#000" stroke-linecap="square">
   <text font-size="9" font-weight="400" xml:space="preserve" stroke="none" y="0" x="0" font-family="sans-serif" fill="#000000"> 4.1</text>
  </g>
  <g stroke-linejoin="round" transform="scale(1.0042)" stroke="#a0a0a4" stroke-linecap="round" stroke-dasharray="0.5,1" stroke-width=".5">
   <polyline points="53.5 141.5 937.5 141.5" fill="none"/>
  </g>
  <g stroke-linejoin="round" transform="scale(1.0042)" stroke="#000" stroke-linecap="round">
   <polyline points="53.5 141.5 58.5 141.5"/>
   <polyline points="937.5 141.5 932.5 141.5"/>
  </g>
  <g stroke-linejoin="bevel" transform="matrix(1.0042 0 0 1.0042 27.113 145.6)" stroke="#000" stroke-linecap="square">
   <text font-size="9" font-weight="400" xml:space="preserve" stroke="none" y="0" x="0" font-family="sans-serif" fill="#000000"> 4.2</text>
  </g>
  <g stroke-linejoin="round" transform="scale(1.0042)" stroke="#a0a0a4" stroke-linecap="round" stroke-dasharray="0.5,1" stroke-width=".5">
   <polyline points="53.5 12.5 937.5 12.5" fill="none"/>
  </g>
  <g stroke-linejoin="round" transform="scale(1.0042)" stroke="#000" stroke-linecap="round">
   <polyline points="53.5 12.5 58.5 12.5"/>
   <polyline points="937.5 12.5 932.5 12.5"/>
  </g>
  <g stroke-linejoin="bevel" transform="matrix(1.0042 0 0 1.0042 27.113 16.067)" stroke="#000" stroke-linecap="square">
   <text font-size="9" font-weight="400" xml:space="preserve" stroke="none" y="0" x="0" font-family="sans-serif" fill="#000000"> 4.3</text>
  </g>
  <g stroke-linejoin="round" transform="scale(1.0042)" stroke="#a0a0a4" stroke-linecap="round" stroke-dasharray="0.5,1" stroke-width=".5">
   <polyline points="53.5 914.5 53.5 12.5" fill="none"/>
  </g>
  <g stroke-linejoin="round" transform="scale(1.0042)" stroke="#000" stroke-linecap="round">
   <polyline points="53.5 914.5 53.5 908.5"/>
   <polyline points="53.5 12.5 53.5 17.5"/>
  </g>
  <g stroke-linejoin="bevel" transform="matrix(1.0042 0 0 1.0042 48.2 935.89)" stroke="#000" stroke-linecap="square">
   <text font-size="9" font-weight="400" xml:space="preserve" stroke="none" y="0" x="0" font-family="sans-serif" fill="#000000"> 0</text>
  </g>
  <g stroke-linejoin="round" transform="scale(1.0042)" stroke="#a0a0a4" stroke-linecap="round" stroke-dasharray="0.5,1" stroke-width=".5">
   <polyline points="200.5 914.5 200.5 12.5" fill="none"/>
  </g>
  <g stroke-linejoin="round" transform="scale(1.0042)" stroke="#000" stroke-linecap="round">
   <polyline points="200.5 914.5 200.5 908.5"/>
   <polyline points="200.5 12.5 200.5 17.5"/>
  </g>
  <g stroke-linejoin="bevel" transform="matrix(1.0042 0 0 1.0042 193.3 935.89)" stroke="#000" stroke-linecap="square">
   <text font-size="9" font-weight="400" xml:space="preserve" stroke="none" y="0" x="0" font-family="sans-serif" fill="#000000"> 20</text>
  </g>
  <g stroke-linejoin="round" transform="scale(1.0042)" stroke="#a0a0a4" stroke-linecap="round" stroke-dasharray="0.5,1" stroke-width=".5">
   <polyline points="348.5 914.5 348.5 12.5" fill="none"/>
  </g>
  <g stroke-linejoin="round" transform="scale(1.0042)" stroke="#000" stroke-linecap="round">
   <polyline points="348.5 914.5 348.5 908.5"/>
   <polyline points="348.5 12.5 348.5 17.5"/>
  </g>
  <g stroke-linejoin="bevel" transform="matrix(1.0042 0 0 1.0042 340.92 935.89)" stroke="#000" stroke-linecap="square">
   <text font-size="9" font-weight="400" xml:space="preserve" stroke="none" y="0" x="0" font-family="sans-serif" fill="#000000"> 40</text>
  </g>
  <g stroke-linejoin="round" transform="scale(1.0042)" stroke="#a0a0a4" stroke-linecap="round" stroke-dasharray="0.5,1" stroke-width=".5">
   <polyline points="495.5 914.5 495.5 12.5" fill="none"/>
  </g>
  <g stroke-linejoin="round" transform="scale(1.0042)" stroke="#000" stroke-linecap="round">
   <polyline points="495.5 914.5 495.5 908.5"/>
   <polyline points="495.5 12.5 495.5 17.5"/>
  </g>
  <g stroke-linejoin="bevel" transform="matrix(1.0042 0 0 1.0042 489.53 935.89)" stroke="#000" stroke-linecap="square">
   <text font-size="9" font-weight="400" xml:space="preserve" stroke="none" y="0" x="0" font-family="sans-serif" fill="#000000"> 60</text>
  </g>
  <g stroke-linejoin="round" transform="scale(1.0042)" stroke="#a0a0a4" stroke-linecap="round" stroke-dasharray="0.5,1" stroke-width=".5">
   <polyline points="642.5 914.5 642.5 12.5" fill="none"/>
  </g>
  <g stroke-linejoin="round" transform="scale(1.0042)" stroke="#000" stroke-linecap="round">
   <polyline points="642.5 914.5 642.5 908.5"/>
   <polyline points="642.5 12.5 642.5 17.5"/>
  </g>
  <g stroke-linejoin="bevel" transform="matrix(1.0042 0 0 1.0042 637.15 935.89)" stroke="#000" stroke-linecap="square">
   <text font-size="9" font-weight="400" xml:space="preserve" stroke="none" y="0" x="0" font-family="sans-serif" fill="#000000"> 80</text>
  </g>
  <g stroke-linejoin="round" transform="scale(1.0042)" stroke="#a0a0a4" stroke-linecap="round" stroke-dasharray="0.5,1" stroke-width=".5">
   <polyline points="790.5 914.5 790.5 12.5" fill="none"/>
  </g>
  <g stroke-linejoin="round" transform="scale(1.0042)" stroke="#000" stroke-linecap="round">
   <polyline points="790.5 914.5 790.5 908.5"/>
   <polyline points="790.5 12.5 790.5 17.5"/>
  </g>
  <g stroke-linejoin="bevel" transform="matrix(1.0042 0 0 1.0042 781.24 935.89)" stroke="#000" stroke-linecap="square">
   <text font-size="9" font-weight="400" xml:space="preserve" stroke="none" y="0" x="0" font-family="sans-serif" fill="#000000"> 100</text>
  </g>
  <g stroke-linejoin="round" transform="scale(1.0042)" stroke="#a0a0a4" stroke-linecap="round" stroke-dasharray="0.5,1" stroke-width=".5">
   <polyline points="937.5 914.5 937.5 12.5" fill="none"/>
  </g>
  <g stroke="#000">
   <g stroke-linejoin="round" transform="scale(1.0042)" stroke-linecap="round">
    <polyline points="937.5 914.5 937.5 908.5"/>
    <polyline points="937.5 12.5 937.5 17.5"/>
   </g>
   <g stroke-linejoin="bevel" transform="matrix(1.0042 0 0 1.0042 929.86 935.89)" stroke-linecap="square">
    <text font-size="9" font-weight="400" xml:space="preserve" stroke="none" y="0" x="0" font-family="sans-serif" fill="#000000"> 120</text>
   </g>
   <g stroke-linejoin="round" transform="scale(1.0042)" stroke-linecap="round">
    <polyline points="53.5 12.5 53.5 914.5 937.5 914.5 937.5 12.5 53.5 12.5" fill="none"/>
   </g>
   <g stroke-linejoin="bevel" stroke-linecap="square">
    <g transform="matrix(0 -1.0042 1.0042 0 14.058 475.98)">
     <text font-size="9" font-weight="400" xml:space="preserve" stroke="none" y="0" x="0" font-family="sans-serif" fill="#000000">Volt</text>
    </g>
    <g transform="matrix(1.0042 0 0 1.0042 475.48 956.98)">
     <text font-size="9" font-weight="400" xml:space="preserve" stroke="none" y="0" x="0" font-family="sans-serif" fill="#000000">Minutes</text>
    </g>
    <g transform="matrix(1.0042 0 0 1.0042 879.65 29.121)">
     <text font-size="9" font-weight="400" xml:space="preserve" stroke="none" y="0" x="0" font-family="sans-serif" fill="#000000">C1</text>
    </g>
   </g>
  </g>
  <g>
   <g stroke-linejoin="round" transform="scale(1.0042)" stroke="#9400d3" stroke-linecap="round">
    <path d="m896.5 24.5h29" fill-rule="evenodd"/>
   </g>
   <g stroke-linejoin="round" transform="scale(1.0042)" stroke="#9400d3" stroke-linecap="round">
    <polyline points="53 912.9 53 912.9 54.6 869.4 56.1 852.5 57.7 841 59.2 831.5 60.7 822.1 62.3 814.6 63.8 806.9 65.3 799.5 66.9 793.1 68.4 785.8 70 777.3 71.5 771.2 73 765.7 74.6 761.1 76.1 757.1 77.6 754.4 79.2 751.5 80.7 748.6 82.3 745.1 83.8 741.7 85.4 738.8 86.9 736.8 88.4 735.1 89.9 733.7 91.4 732.4 93 730.9 94.5 729.6 96.1 728.5 97.6 727.6 99.1 726.9 100.7 726.3 102.2 725.3 103.8 724.1 105.3 722.6 106.8 721.2 108.4 720.3 109.9 719.4 111.5 718.3 113 717.3 114.6 716 116.1 714.6 117.6 713.3 119.2 712.2 120.7 710.9 122.2 709.5 123.8 707.9 125.3 706.3 126.9 705.2 128.4 704.1 129.9 702.9 131.5 701.4 133 699.9 134.6 698.6 136.1 697.3 137.6 696 139.2 694.6 140.7 693 142.2 691.6 143.8 690 145.3 688.3 146.9 686.6 148.4 685 149.9 683.6 151.5 682.3 153 680.9 154.6 679.3 156.1 677.9 157.6 676.7 159.2 675.3 160.7 673.6 162.2 671.7 163.8 670.2 165.3 668.8 166.9 667.4 168.4 665.9 169.9 664.5 171.5 663.3 173 662.1 174.5 660.9 176.1 659.5 177.6 658.2 179.2 657.1 180.7 656 182.2 655 183.8 654.1 185.3 653.2 186.9 652.2 188.4 651 189.9 649.7 191.5 648.4 193 647.2 194.5 646.1 196.1 645 197.6 643.8 199.2 642.6 200.7 641.4 202.3 640.3 203.8 639.4 205.4 638.4 206.9 637.5 208.4 636.6 210 635.7 211.5 634.6 213.1 633.6 214.6 632.7 216.1 631.7 217.7 630.6 219.2 629.6 220.8 628.6 222.3 627.6 223.8 626.7 225.4 625.7 226.9 624.7 228.5 623.7 230 622.7 231.5 621.8 233.1 620.9 234.6 620.1 236.2 619.4 237.7 618.6 239.2 617.9 240.8 617.2 242.3 616.4 243.9 615.6 245.4 614.6 246.9 612.9 248.5 610.6 250 608.3 251.5 606 253.1 603.5 254.6 601.1 256.2 599.3 257.7 597.9 259.2 596.7 260.8 595.8 262.3 595.1 263.9 594.4 265.4 593.8 266.9 593.3 268.5 592.7 270 592.1 271.6 591.5 273.1 591 274.6 590.5 276.1 589.9 277.7 589.3 279.2 588.7 280.7 588.1 282.2 587.5 283.8 586.9 285.3 586.2 286.8 585.6 288.3 585.1 289.9 584.6 291.4 584.2 292.9 583.8 294.4 583.4 296 583.1 297.5 582.8 299 582.4 300.6 582 302.1 581.6 303.7 581.3 305.2 580.9 306.7 580.4 308.3 579.8 309.8 579.3 311.4 578.8 312.9 578.3 314.4 577.8 316 577.3 317.5 576.9 319 576.5 320.6 576 322.1 575.4 323.6 574.9 325.2 574.5 326.7 574.1 328.2 573.7 329.7 573.2 331.3 572.6 332.8 572 334.4 571.4 336 570.7 337.6 570.1 339.1 569.6 340.7 569.1 342.2 568.6 343.7 568.2 345.2 567.7 346.7 567.1 348.2 566.6 349.8 566 351.3 565.3 352.8 564.5 354.3 563.8 355.9 563 357.4 562.3 359 561.6 360.5 560.9 362.1 560.2 363.6 559.5 365.2 558.7 366.7 558 368.2 557.3 369.7 556.6 371.3 555.9 372.8 555.3 374.3 554.7 375.8 554 377.4 553.4 378.9 552.8 380.4 552.2 382 551.6 383.5 550.9 385 550.1 386.5 549.4 388 548.8 389.5 548.2 391 547.4 392.5 546.6 394.1 545.9 395.6 545.3 397.1 544.6 398.6 543.7 400.1 542.8 401.7 541.9 403.2 541 404.7 540.3 406.2 539.6 407.8 538.9 409.3 538.3 410.8 537.5 412.4 536.8 413.9 536 415.4 535.2 417 534.3 418.5 533.4 420 532.5 421.6 531.7 423.1 530.9 424.6 530.1 426.2 529.3 427.7 528.4 429.2 527.5 430.7 526.6 432.3 525.6 433.8 524.6 435.3 523.8 436.9 522.9 438.4 521.9 439.9 520.8 441.5 519.8 443 518.8 444.6 518 446.1 517.2 447.7 516.4 449.2 515.5 450.7 514.6 452.3 513.5 453.8 512.4 455.3 511.4 456.9 510.4 458.4 509.6 460 508.7 461.5 507.7 463 506.6 464.6 505.4 466.1 504.2 467.6 503.1 469.2 502 470.7 500.8 472.3 499.7 473.8 498.5 475.3 497.5 476.9 496.3 478.4 495.3 479.9 494.3 481.5 493.3 483 492.3 484.6 491.1 486.1 489.8 487.6 488.4 489.2 487.2 490.7 486 492.2 485 493.8 483.7 495.3 482.3 496.9 481 498.4 479.7 500 478.5 501.5 477.3 503.1 476 504.6 474.7 506.1 473.5 507.7 472.4 509.2 471.2 510.8 469.9 512.3 468.4 513.8 466.9 515.4 465.5 516.9 464.1 518.4 462.6 520 461.2 521.5 459.7 523.1 458.2 524.6 456.6 526.1 455.1 527.7 453.6 529.2 452.3 530.7 451 532.3 449.5 533.8 447.9 535.3 446.3 536.9 444.8 538.4 443.4 540 442 541.5 440.5 543 439.2 544.6 437.9 546.1 436.4 547.7 434.9 549.2 433.3 550.7 431.8 552.3 430.4 553.8 429 555.4 427.6 556.9 426.2 558.4 424.7 560 423.3 561.5 421.9 563.1 420.5 564.6 419.1 566.1 417.4 567.7 415.7 569.2 414 570.8 412.4 572.3 410.9 573.8 409.5 575.4 407.5 576.9 404.9 578.4 401.8 580 398.8 581.5 396.2 583 394.3 584.6 392.7 586.1 391.1 587.6 389.4 589.1 387.8 590.7 386.3 592.2 384.8 593.7 383.2 595.3 381.7 596.8 380.4 598.4 379.1 599.9 377.7 601.4 376.1 603 374.5 604.6 372.8 606.2 371.2 607.8 369.5 609.4 367.8 611 366.2 612.6 364.6 614.1 363.1 615.6 361.5 617.1 360 618.7 358.4 620.2 356.6 621.7 354.6 623.2 352.5 624.8 350.4 626.3 348.6 627.8 346.9 629.3 345.2 630.9 343.7 632.4 342.3 633.9 340.7 635.5 339 637 337.4 638.5 336 640.1 334.7 641.6 333.1 643.2 331.4 644.7 329.7 646.3 328.1 647.8 326.6 649.3 325 650.9 323.4 652.4 321.8 653.9 320.2 655.5 318.6 657 316.9 658.6 315.3 660.1 313.8 661.6 312.4 663.2 310.8 664.7 309 666.3 307.3 667.8 305.9 669.3 304.6 670.9 303.3 672.4 301.8 673.9 300.2 675.5 298.6 677 296.8 678.5 294.9 680.1 293.2 681.6 291.6 683.2 290.1 684.7 288.5 686.2 286.9 687.8 285.2 689.3 283.7 690.9 282.1 692.4 280.5 693.9 278.8 695.5 277 697 275.2 698.6 273.3 700.1 271.5 701.6 269.8 703.2 268.1 704.7 266.4 706.3 264.6 707.8 262.8 709.3 261.2 710.9 259.5 712.4 257.7 714 255.7 715.5 253.6 717 251.4 718.6 249.6 720.1 248 721.6 246.3 723.2 244.3 724.7 242.3 726.3 240.6 727.8 238.9 729.3 237.1 730.9 235.2 732.4 233.1 733.9 231.1 735.5 229.3 737 227.6 738.6 225.8 740.1 223.8 741.6 221.8 743.2 220.1 744.7 218.6 746.3 216.9 747.8 215 749.3 212.8 750.9 210.7 752.4 208.9 754 207 755.5 205 757 203.3 758.6 201.6 760.1 199.8 761.7 197.9 763.2 196.1 764.7 194.2 766.3 192.1 767.8 190.1 769.3 188.2 770.9 186 772.4 183.8 774 182.3 775.5 180.5 777.1 178.4 778.6 176.6 780.1 174.8 781.7 172.8 783.2 170.5 784.7 168.4 786.3 166.6 787.8 164.4 789.4 162.2 790.9 160.5 792.5 158.6 794 155.8 795.6 153.5 797.1 151.2 798.6 149.1 800.2 146.4 801.7 144.4 803.3 142.1 804.8 140.1 806.4 138 807.9 136.5 809.4 135.5 811 135.6 812.5 135.8 814 136.4 815.6 136.9 817.1 137.3 818.7 137.4 820.2 135.8" fill="none"/>
   </g>
   <g stroke-linejoin="bevel" transform="matrix(1.0042 0 0 1.0042 877.64 43.179)" stroke="#000" stroke-linecap="square">
    <text font-size="9" font-weight="400" xml:space="preserve" stroke="none" y="0" x="0" font-family="sans-serif" fill="#000000">C2</text>
   </g>
   <g stroke-linejoin="round" transform="scale(1.0042)" stroke="#009e73" stroke-linecap="round">
    <path d="m896.5 38.5h29" fill-rule="evenodd"/>
   </g>
   <g stroke-linejoin="round" transform="scale(1.0042)" stroke="#009e73" stroke-linecap="round">
    <polyline points="53 905.2 53 905.2 54.6 875 56.1 857.5 57.7 846.7 59.2 836.7 60.7 827.4 62.3 817.8 63.8 809.3 65.3 802.3 66.9 795.7 68.4 788.9 70 782.5 71.5 777.4 73 771.7 74.6 766.8 76.1 763.6 77.6 759.7 79.2 757.3 80.7 755.2 82.3 753.2 83.8 751.2 85.4 749.4 86.9 747 88.4 744 89.9 740.8 91.4 738.5 93 737.1 94.5 736 96.1 735 97.6 734 99.1 732.9 100.7 732 102.2 730.8 103.8 729.4 105.3 728.3 106.8 727.2 108.4 726 109.9 724.7 111.5 723.6 113 722.2 114.6 721.1 116.1 720.1 117.6 719.2 119.2 718 120.7 716.6 122.2 714.8 123.8 712.7 125.3 711 126.9 709.9 128.4 708.9 129.9 707.3 131.5 705.5 133 704.4 134.6 703.3 136.1 701.9 137.6 700.3 139.2 698.9 140.7 697.5 142.2 696.2 143.8 694.7 145.3 693 146.9 691.2 148.4 689.6 149.9 688 151.5 686.4 153 684.8 154.6 683.3 156.1 682 157.6 680.8 159.2 679.4 160.7 677.8 162.2 676.4 163.8 675 165.3 673.6 166.9 672.2 168.4 670.8 169.9 669.4 171.5 668 173 666.8 174.5 665.7 176.1 664.6 177.6 663.4 179.2 662.1 180.7 661 182.2 659.9 183.8 659 185.3 657.9 186.9 656.8 188.4 655.5 189.9 654 191.5 652.9 193 651.9 194.5 651 196.1 650.1 197.6 649.1 199.2 648 200.7 646.9 202.3 645.7 203.8 644.6 205.4 643.6 206.9 642.7 208.4 641.8 210 640.8 211.5 639.7 213.1 638.7 214.6 637.7 216.1 636.6 217.7 635.6 219.2 634.6 220.8 633.6 222.3 632.6 223.8 631.5 225.4 630.4 226.9 629.4 228.5 628.5 230 627.6 231.5 626.7 233.1 625.7 234.6 624.7 236.2 623.7 237.7 622.9 239.2 622.2 240.8 621.6 242.3 620.8 243.9 620.1 245.4 619.3 246.9 618.6 248.5 617.8 250 616.9 251.5 615.6 253.1 613.8 254.6 611.6 256.2 609.1 257.7 606.3 259.2 603.2 260.8 600.4 262.3 598.5 263.9 597.1 265.4 596 266.9 595.2 268.5 594.5 270 593.8 271.6 593.3 273.1 592.9 274.6 592.4 276.1 591.8 277.7 591.3 279.2 590.8 280.7 590.3 282.2 589.7 283.8 589.1 285.3 588.3 286.8 587.7 288.3 587.2 289.9 586.8 291.4 586.4 292.9 586 294.4 585.7 296 585.2 297.5 584.7 299 584.3 300.6 584 302.1 583.6 303.7 583.2 305.2 582.7 306.7 582.1 308.3 581.6 309.8 581.1 311.4 580.6 312.9 580.1 314.4 579.7 316 579.2 317.5 578.7 319 578.2 320.6 577.6 322.1 577.1 323.6 576.6 325.2 576.2 326.7 575.7 328.2 575.1 329.7 574.6 331.3 573.9 332.8 573.3 334.4 572.6 336 572 337.6 571.5 339.1 571 340.7 570.5 342.2 569.9 343.7 569.3 345.2 568.8 346.7 568.3 348.2 567.8 349.8 567.2 351.3 566.5 352.8 565.8 354.3 565.1 355.9 564.4 357.4 563.8 359 563.3 360.5 562.7 362.1 562.1 363.6 561.5 365.2 561 366.7 560.5 368.2 559.9 369.7 559.2 371.3 558.4 372.8 557.6 374.3 556.9 375.8 556.2 377.4 555.6 378.9 555 380.4 554.5 382 553.9 383.5 553.4 385 552.7 386.5 552 388 551.3 389.5 550.5 391 549.7 392.5 548.8 394.1 548.1 395.6 547.4 397.1 546.8 398.6 546.1 400.1 545.5 401.7 544.7 403.2 543.7 404.7 542.8 406.2 541.8 407.8 541 409.3 540.2 410.8 539.5 412.4 538.7 413.9 538 415.4 537.3 417 536.4 418.5 535.4 420 534.6 421.6 533.8 423.1 533 424.6 532.2 426.2 531.4 427.7 530.6 429.2 529.9 430.7 529 432.3 527.9 433.8 526.8 435.3 525.7 436.9 524.7 438.4 523.9 439.9 522.9 441.5 521.8 443 520.6 444.6 519.5 446.1 518.6 447.7 517.7 449.2 516.9 450.7 516.1 452.3 515.2 453.8 514.2 455.3 513 456.9 511.9 458.4 510.9 460 509.9 461.5 509 463 507.9 464.6 506.7 466.1 505.4 467.6 504.2 469.2 502.9 470.7 501.6 472.3 500.3 473.8 499 475.3 497.8 476.9 496.6 478.4 495.5 479.9 494.5 481.5 493.5 483 492.4 484.6 491.2 486.1 490 487.6 488.7 489.2 487.5 490.7 486.3 492.2 485.2 493.8 484.1 495.3 482.9 496.9 481.6 498.4 480.1 500 478.8 501.5 477.6 503.1 476.4 504.6 475 506.1 473.7 507.7 472.4 509.2 471.1 510.8 469.8 512.3 468.5 513.8 467.1 515.4 465.6 516.9 464.1 518.4 462.8 520 461.4 521.5 460.1 523.1 458.9 524.6 457.5 526.1 456.1 527.7 454.8 529.2 453.4 530.7 451.9 532.3 450.2 533.8 448.6 535.3 447.1 536.9 445.6 538.4 444.1 540 442.7 541.5 441.2 543 439.7 544.6 438.3 546.1 436.8 547.7 435.3 549.2 433.8 550.7 432.4 552.3 431 553.8 429.6 555.4 428 556.9 426.4 558.4 424.8 560 423.3 561.5 421.7 563.1 420.1 564.6 418.6 566.1 417.2 567.7 415.6 569.2 413.8 570.8 412 572.3 410 573.8 407.6 575.4 404.3 576.9 400.7 578.4 397.4 580 394.9 581.5 392.9 583 391.2 584.6 389.5 586.1 387.9 587.6 386.2 589.1 384.4 590.7 382.8 592.2 381.4 593.7 380.1 595.3 378.7 596.8 377.1 598.4 375.6 599.9 374.1 601.4 372.7 603 371.2 604.6 369.5 606.2 367.7 607.8 365.9 609.4 364.3 611 362.6 612.6 361 614.1 359.5 615.6 358.1 617.1 356.7 618.7 355.2 620.2 353.7 621.7 352.2 623.2 350.8 624.8 349.2 626.3 347.5 627.8 345.8 629.3 344.2 630.9 342.9 632.4 341.5 633.9 339.8 635.5 338.1 637 336.6 638.5 335.3 640.1 333.8 641.6 332.2 643.2 330.5 644.7 328.9 646.3 327.3 647.8 325.7 649.3 324.1 650.9 322.5 652.4 321 653.9 319.6 655.5 318 657 316.2 658.6 314.4 660.1 312.7 661.6 311.1 663.2 309.4 664.7 307.6 666.3 306.1 667.8 304.7 669.3 303.4 670.9 302 672.4 300.3 673.9 298.4 675.5 296.5 677 294.7 678.5 292.8 680.1 291.1 681.6 289.5 683.2 287.9 684.7 286.1 686.2 284.4 687.8 282.7 689.3 281 690.9 279.2 692.4 277.6 693.9 276 695.5 274.2 697 272.5 698.6 270.8 700.1 269 701.6 267.2 703.2 265.4 704.7 263.6 706.3 261.8 707.8 260.2 709.3 258.6 710.9 256.9 712.4 255 714 253 715.5 251.3 717 249.6 718.6 247.8 720.1 246 721.6 244.2 723.2 242.4 724.7 240.7 726.3 238.9 727.8 237.3 729.3 235.7 730.9 233.7 732.4 231.5 733.9 229.8 735.5 228.1 737 226 738.6 223.9 740.1 222.1 741.6 220.5 743.2 218.7 744.7 216.8 746.3 214.9 747.8 213.1 749.3 211.1 750.9 209.2 752.4 207.2 754 205.3 755.5 203.2 757 201.1 758.6 199 760.1 196.8 761.7 194.4 763.2 192.5 764.7 190.9 766.3 188.8 767.8 186.7 769.3 184.7 770.9 183 772.4 181.2 774 179 775.5 177 777.1 175.3 778.6 173.3 780.1 171 781.7 169 783.2 167.1 784.7 165.4 786.3 163 787.8 161 789.4 159.3 790.9 157.1 792.5 155.3 794 153.3 795.6 151.6 797.1 149.7 798.6 147.5 800.2 145 801.7 143.1 803.3 140.9 804.8 138.8 806.4 136.9 807.9 134.9 809.4 133.4 811 132.5 812.5 132.9 814 132.5 815.6 132.5 817.1 132.3 818.7 131.8 820.2 133.2" fill="none"/>
   </g>
   <g stroke-linejoin="bevel" transform="matrix(1.0042 0 0 1.0042 877.64 57.238)" stroke="#000" stroke-linecap="square">
    <text font-size="9" font-weight="400" xml:space="preserve" stroke="none" y="0" x="0" font-family="sans-serif" fill="#000000">C3</text>
   </g>
   <g stroke-linejoin="round" transform="scale(1.0042)" stroke="#56b4e9" stroke-linecap="round">
    <path d="m896.5 52.5h29" fill-rule="evenodd"/>
   </g>
   <g stroke-linejoin="round" transform="scale(1.0042)" stroke="#56b4e9" stroke-linecap="round">
    <polyline points="53 883.3 53 883.3 54.6 857.3 56.1 842.3 57.7 832.2 59.2 823.5 60.7 814.8 62.3 808.7 63.8 801.6 65.3 795.4 66.9 789.3 68.4 784.4 70 780.1 71.5 776.6 73 773.6 74.6 771.4 76.1 769.5 77.6 767.3 79.2 764.8 80.7 763.7 82.3 762.6 83.8 761.4 85.4 760 86.9 758.5 88.4 757.1 89.9 756.3 91.4 755.1 93 753.5 94.5 752.1 96.1 750.9 97.6 750 99.1 748.8 100.7 747.1 102.2 744.3 103.8 741.7 105.3 738.9 106.8 737 108.4 735.9 109.9 734.5 111.5 733 113 731.4 114.6 730.3 116.1 729.1 117.6 727.6 119.2 726 120.7 724.7 122.2 723.6 123.8 721.9 125.3 720 126.9 718.6 128.4 717.4 129.9 715.8 131.5 714.2 133 712.9 134.6 711.7 136.1 710.6 137.6 709.1 139.2 707.3 140.7 705.7 142.2 704.4 143.8 703.1 145.3 701.6 146.9 700 148.4 698.4 149.9 697 151.5 695.5 153 694 154.6 692.5 156.1 691.2 157.6 689.9 159.2 688.6 160.7 687.2 162.2 685.8 163.8 684.5 165.3 683.3 166.9 682 168.4 680.6 169.9 679.3 171.5 678.1 173 677.1 174.5 675.9 176.1 674.5 177.6 673.1 179.2 672 180.7 671.2 182.2 670.3 183.8 669.3 185.3 668.2 186.9 667 188.4 665.9 189.9 664.8 191.5 663.6 193 662 194.5 660.4 196.1 658.8 197.6 657.2 199.2 655.6 200.7 653.9 202.3 652.5 203.8 651.5 205.4 650.6 206.9 649.8 208.4 648.8 210 647.7 211.5 646.5 213.1 645.6 214.6 644.8 216.1 644 217.7 643 219.2 642 220.8 640.8 222.3 639.8 223.8 638.9 225.4 638.1 226.9 637.2 228.5 636.4 230 635.6 231.5 634.7 233.1 633.8 234.6 632.9 236.2 632.1 237.7 631.3 239.2 630.8 240.8 630.2 242.3 629.5 243.9 628.8 245.4 628.1 246.9 627.4 248.5 626.7 250 626.1 251.5 625.4 253.1 624.8 254.6 624.3 256.2 623.7 257.7 623.1 259.2 622.5 260.8 621.9 262.3 621.4 263.9 621.1 265.4 620.6 266.9 620.1 268.5 619.5 270 619 271.6 618.6 273.1 618.2 274.6 617.7 276.1 617.1 277.7 616.6 279.2 616.1 280.7 615.6 282.2 614.8 283.8 613.7 285.3 612.4 286.8 610.8 288.3 608.9 289.9 607 291.4 605.5 292.9 604.5 294.4 603.6 296 602.5 297.5 601 299 599.3 300.6 597.8 302.1 596.7 303.7 595.9 305.2 595.2 306.7 594.6 308.3 594 309.8 593.4 311.4 592.9 312.9 592.4 314.4 592 316 591.5 317.5 590.9 319 590.3 320.6 589.7 322.1 589 323.6 588.4 325.2 587.9 326.7 587.4 328.2 586.7 329.7 586.2 331.3 585.6 332.8 585 334.4 584.3 336 583.6 337.6 582.9 339.1 582.1 340.7 581.3 342.2 580.6 343.7 580.2 345.2 579.8 346.7 579.3 348.2 578.6 349.8 578 351.3 577.3 352.8 576.7 354.3 576 355.9 575.3 357.4 574.7 359 574.1 360.5 573.6 362.1 573 363.6 572.5 365.2 571.9 366.7 571.2 368.2 570.3 369.7 569.5 371.3 568.8 372.8 568.2 374.3 567.7 375.8 567.1 377.4 566.4 378.9 565.7 380.4 565 382 564.2 383.5 563.4 385 562.6 386.5 561.9 388 561.2 389.5 560.4 391 559.7 392.5 558.9 394.1 558.2 395.6 557.4 397.1 556.6 398.6 555.6 400.1 554.7 401.7 553.8 403.2 553.1 404.7 552.3 406.2 551.5 407.8 550.6 409.3 549.6 410.8 548.7 412.4 547.8 413.9 547 415.4 546.1 417 545.1 418.5 544 420 542.8 421.6 541.6 423.1 540.6 424.6 539.7 426.2 538.9 427.7 538.1 429.2 537.2 430.7 536 432.3 535 433.8 534 435.3 533.1 436.9 532.2 438.4 531.2 439.9 530.1 441.5 529.1 443 528.1 444.6 527.3 446.1 526.4 447.7 525.5 449.2 524.4 450.7 523.3 452.3 522.3 453.8 521.3 455.3 520.3 456.9 519.4 458.4 518.3 460 517.1 461.5 515.9 463 514.7 464.6 513.4 466.1 512.1 467.6 510.9 469.2 509.7 470.7 508.6 472.3 507.6 473.8 506.5 475.3 505.4 476.9 504.2 478.4 503 479.9 501.9 481.5 500.7 483 499.6 484.6 498.4 486.1 497.1 487.6 495.7 489.2 494.5 490.7 493.4 492.2 492.2 493.8 490.8 495.3 489.5 496.9 488.1 498.4 486.8 500 485.5 501.5 484.2 503.1 482.8 504.6 481.5 506.1 480.2 507.7 478.8 509.2 477.4 510.8 476 512.3 474.5 513.8 473 515.4 471.6 516.9 470.2 518.4 468.7 520 467.3 521.5 465.8 523.1 464.2 524.6 462.7 526.1 461.4 527.7 460 529.2 458.5 530.7 457 532.3 455.4 533.8 453.9 535.3 452.2 536.9 450.7 538.4 449.2 540 447.7 541.5 446.2 543 444.6 544.6 442.8 546.1 440.9 547.7 439 549.2 437.2 550.7 435.5 552.3 434 553.8 432.5 555.4 431.1 556.9 429.5 558.4 427.9 560 426.4 561.5 424.9 563.1 423.5 564.6 422 566.1 420.4 567.7 418.9 569.2 417.4 570.8 415.9 572.3 414.4 573.8 412.7 575.4 411 576.9 409.3 578.4 407.4 580 404.8 581.5 401.8 583 399 584.6 396.7 586.1 394.6 587.6 392.8 589.1 391.1 590.7 389.6 592.2 388 593.7 386.5 595.3 385.1 596.8 383.7 598.4 382.5 599.9 381.1 601.4 379.6 603 378 604.6 376.3 606.2 374.7 607.8 373.1 609.4 371.5 611 370 612.6 368.6 614.1 367.1 615.6 365.5 617.1 364 618.7 362.5 620.2 361.1 621.7 359.6 623.2 358 624.8 356.4 626.3 354.8 627.8 353.2 629.3 351.5 630.9 350 632.4 348.5 633.9 346.9 635.5 345.3 637 343.7 638.5 342.2 640.1 340.6 641.6 338.9 643.2 337.3 644.7 335.6 646.3 333.7 647.8 331.8 649.3 330 650.9 328.4 652.4 326.7 653.9 324.9 655.5 323.3 657 321.9 658.6 320.3 660.1 318.6 661.6 317 663.2 315.2 664.7 313.4 666.3 311.7 667.8 310.2 669.3 308.9 670.9 307.4 672.4 305.8 673.9 304.2 675.5 302.4 677 300.6 678.5 298.9 680.1 297.2 681.6 295.5 683.2 293.9 684.7 292.3 686.2 290.6 687.8 288.9 689.3 287.1 690.9 285.4 692.4 283.8 693.9 282.1 695.5 280.4 697 278.5 698.6 276.5 700.1 274.6 701.6 272.9 703.2 271.2 704.7 269.6 706.3 267.9 707.8 266 709.3 264.3 710.9 262.7 712.4 261 714 259.1 715.5 257.4 717 255.6 718.6 253.6 720.1 251.6 721.6 249.7 723.2 248 724.7 246.2 726.3 244.5 727.8 242.7 729.3 240.9 730.9 239 732.4 237.1 733.9 234.9 735.5 232.6 737 229.9 738.6 227.3 740.1 225 741.6 223.2 743.2 221.5 744.7 219.5 746.3 217.3 747.8 215.3 749.3 213.4 750.9 211.6 752.4 210 754 208 755.5 206 757 204.3 758.6 202.4 760.1 200.4 761.7 198.3 763.2 196.5 764.7 194.7 766.3 192.5 767.8 190.7 769.3 188.7 770.9 186.4 772.4 184.6 774 183.1 775.5 180.9 777.1 178.5 778.6 176.8 780.1 175.1 781.7 172.9 783.2 170.7 784.7 168.9 786.3 166.9 787.8 164.9 789.4 162.7 790.9 160.7 792.5 158.7 794 156.6 795.6 154.6 797.1 152.4 798.6 150.5 800.2 148.2 801.7 145.9 803.3 143.7 804.8 141.8 806.4 139.8 807.9 138.5 809.4 136.7 811 135.2 812.5 135.2 814 134.7 815.6 134.7 817.1 134.4 818.7 134.5 820.2 133.2" fill="none"/>
   </g>
   <g stroke-linejoin="bevel" transform="matrix(1.0042 0 0 1.0042 877.64 71.296)" stroke="#000" stroke-linecap="square">
    <text font-size="9" font-weight="400" xml:space="preserve" stroke="none" y="0" x="0" font-family="sans-serif" fill="#000000">C4</text>
   </g>
   <g stroke-linejoin="round" transform="scale(1.0042)" stroke="#e69f00" stroke-linecap="round">
    <path d="m896.5 66.5h29" fill-rule="evenodd"/>
   </g>
   <g stroke-linejoin="bevel" transform="matrix(1.0042 0 0 1.0042 877.64 85.354)" stroke="#000" stroke-linecap="square">
    <text font-size="9" font-weight="400" xml:space="preserve" stroke="none" y="0" x="0" font-family="sans-serif" fill="#000000">C5</text>
   </g>
   <g stroke-linejoin="round" transform="scale(1.0042)" stroke="#f0e442" stroke-linecap="round">
    <path d="m896.5 80.5h29" fill-rule="evenodd"/>
   </g>
   <g stroke-linejoin="bevel" transform="matrix(1.0042 0 0 1.0042 877.64 99.413)" stroke="#000" stroke-linecap="square">
    <text font-size="9" font-weight="400" xml:space="preserve" stroke="none" y="0" x="0" font-family="sans-serif" fill="#000000">C6</text>
   </g>
   <g stroke-linejoin="round" transform="scale(1.0042)" stroke="#0072b2" stroke-linecap="round">
    <path d="m896.5 94.5h29" fill-rule="evenodd"/>
   </g>
   <g stroke-linejoin="round" transform="scale(1.0042)" stroke="#000" stroke-linecap="round">
    <polyline points="53.5 12.5 53.5 914.5 937.5 914.5 937.5 12.5 53.5 12.5" fill="none"/>
   </g>
  </g>
 </g>
</svg>
